<?xml version="1.0" encoding="UTF-8" standalone="no"?>
<!-- icon666.com - MILLIONS OF FREE VECTOR ICONS -->

<svg
   viewBox="0 0 529 529"
   version="1.1"
   id="svg17"
   sodipodi:docname="icon.svg"
   width="529"
   height="529"
   inkscape:version="1.4.3 (0d15f75042, 2025-12-25)"
   xmlns:inkscape="http://www.inkscape.org/namespaces/inkscape"
   xmlns:sodipodi="http://sodipodi.sourceforge.net/DTD/sodipodi-0.dtd"
   xmlns="http://www.w3.org/2000/svg"
   xmlns:svg="http://www.w3.org/2000/svg">
  <defs
     id="defs17">
    <filter
       style="color-interpolation-filters:sRGB"
       inkscape:label="Drop Shadow"
       id="filter20"
       x="-0.05"
       y="-0.05"
       width="1.1"
       height="1.1">
      <feFlood
         result="flood"
         in="SourceGraphic"
         flood-opacity="0.498039"
         flood-color="rgb(0,0,0)"
         id="feFlood19" />
      <feGaussianBlur
         result="blur"
         in="SourceGraphic"
         stdDeviation="5.000000"
         id="feGaussianBlur19" />
      <feOffset
         result="offset"
         in="blur"
         dx="0.000000"
         dy="0.000000"
         id="feOffset19" />
      <feComposite
         result="comp1"
         operator="in"
         in="offset"
         in2="flood"
         id="feComposite19" />
      <feComposite
         result="fbSourceGraphic"
         operator="over"
         in="SourceGraphic"
         in2="comp1"
         id="feComposite20" />
      <feColorMatrix
         result="fbSourceGraphicAlpha"
         in="fbSourceGraphic"
         values="0 0 0 -1 0 0 0 0 -1 0 0 0 0 -1 0 0 0 0 1 0"
         id="feColorMatrix20" />
      <feFlood
         id="feFlood20"
         result="flood"
         in="fbSourceGraphic"
         flood-opacity="0.498039"
         flood-color="rgb(0,0,0)" />
      <feGaussianBlur
         id="feGaussianBlur20"
         result="blur"
         in="fbSourceGraphic"
         stdDeviation="5.000000" />
      <feOffset
         id="feOffset20"
         result="offset"
         in="blur"
         dx="0.000000"
         dy="0.000000" />
      <feComposite
         id="feComposite21"
         result="comp1"
         operator="in"
         in="offset"
         in2="flood" />
      <feComposite
         id="feComposite22"
         result="comp2"
         operator="over"
         in="fbSourceGraphic"
         in2="comp1" />
    </filter>
    <filter
       style="color-interpolation-filters:sRGB;"
       inkscape:label="Drop Shadow"
       id="filter36"
       x="-0.027083333"
       y="-0.027083333"
       width="1.0541667"
       height="1.0541667">
      <feFlood
         result="flood"
         in="SourceGraphic"
         flood-opacity="0.498039"
         flood-color="rgb(0,0,0)"
         id="feFlood35" />
      <feGaussianBlur
         result="blur"
         in="SourceGraphic"
         stdDeviation="5.000000"
         id="feGaussianBlur35" />
      <feOffset
         result="offset"
         in="blur"
         dx="0.000000"
         dy="0.000000"
         id="feOffset35" />
      <feComposite
         result="comp1"
         operator="in"
         in="offset"
         in2="flood"
         id="feComposite35" />
      <feComposite
         result="comp2"
         operator="over"
         in="SourceGraphic"
         in2="comp1"
         id="feComposite36" />
    </filter>
  </defs>
  <sodipodi:namedview
     id="namedview17"
     pagecolor="#ffffff"
     bordercolor="#000000"
     borderopacity="0.25"
     inkscape:showpageshadow="2"
     inkscape:pageopacity="0.0"
     inkscape:pagecheckerboard="0"
     inkscape:deskcolor="#d1d1d1"
     inkscape:zoom="0.85"
     inkscape:cx="260"
     inkscape:cy="229.41176"
     inkscape:window-width="1536"
     inkscape:window-height="791"
     inkscape:window-x="0"
     inkscape:window-y="0"
     inkscape:window-maximized="1"
     inkscape:current-layer="svg17" />
  <rect
     style="fill:#e6e6e6;stroke:none;filter:url(#filter20)"
     id="rect17"
     width="480"
     height="480"
     x="24.5"
     y="24.5"
     ry="25"
     rx="25" />
  <path
     id="path17"
     d="m 210.84375,330.84375 c -1.5,1.5 -2.34375,3.53516 -2.34375,5.65625 v 16 h 16 v -12.6875 l 5.65625,-5.65625 -11.3125,-11.3125 z m 0,0 M 224.5,285.1875 l -13.65625,13.65625 11.3125,11.3125 16,-16 c 1.5,-1.5 2.34375,-3.53516 2.34375,-5.65625 v -24 h -16 z m 0,0 m 85.65625,37.65625 -11.3125,11.3125 5.65625,5.65625 V 352.5 h 16 v -16 c 0,-2.12109 -0.84375,-4.15625 -2.34375,-5.65625 z m 0,0 m 8,-24 L 304.5,285.1875 V 264.5 h -16 v 24 c 0,2.12109 0.84375,4.15625 2.34375,5.65625 l 16,16 z m 0,0 M 360.5,240.5 c 0,-2.12109 -0.84375,-4.15625 -2.34375,-5.65625 l -16,-16 c -1.5,-1.5 -3.53516,-2.34375 -5.65625,-2.34375 h -18.23047 l -6.18359,-18.52734 C 310.99609,194.70703 307.94141,192.50391 304.5,192.5 h -24 c -2.12109,0 -4.15625,0.84375 -5.65625,2.34375 L 264.5,205.1875 254.15625,194.84375 c -1.5,-1.5 -3.53516,-2.34375 -5.65625,-2.34375 h -24 c -3.44141,0.004 -6.49609,2.20703 -7.58594,5.47266 L 210.73047,216.5 H 192.5 c -2.12109,0 -4.15625,0.84375 -5.65625,2.34375 l -16,16 c -1.5,1.5 -2.34375,3.53516 -2.34375,5.65625 v 29.60156 l -14.65625,21.98438 c -0.87109,1.30859 -1.33594,2.84375 -1.34375,4.41406 v 40 c 0,2.12109 0.84375,4.15625 2.34375,5.65625 L 176.5,363.8125 V 376.5 c 0,3.67187 2.5,6.87109 6.0625,7.76172 l 27.73828,6.93359 6.61328,19.83203 c 1.08985,3.26563 4.14453,5.46875 7.58594,5.47266 h 24 c 2.12109,0 4.15625,-0.84375 5.65625,-2.34375 L 264.5,403.8125 l 10.34375,10.34375 c 1.5,1.5 3.53516,2.34375 5.65625,2.34375 h 24 c 3.44141,-0.004 6.49609,-2.20703 7.58594,-5.47266 l 6.61328,-19.83203 27.73828,-6.93359 C 350,383.37109 352.5,380.17187 352.5,376.5 v -12.6875 l 21.65625,-21.65625 c 1.5,-1.5 2.34375,-3.53516 2.34375,-5.65625 v -40 c -0.004,-1.57813 -0.46875,-3.125 -1.34375,-4.44141 L 360.5,270.10156 Z m -115.3125,160 h -14.91797 l -4.61719,-13.83984 12.50391,-12.50391 c 1.5,-1.5 2.34375,-3.53516 2.34375,-5.65625 v -8 h -16 v 4.6875 L 214.04297,375.64453 192.5,370.25391 V 328.5 h -16 v 12.6875 l -8,-8 v -34.28906 l 9.23828,-13.86328 6.76172,6.7539 V 296.5 h 16 v -8 c 0,-2.12109 -0.84375,-4.15625 -2.34375,-5.65625 L 184.5,269.1875 v -25.375 L 195.8125,232.5 h 17.375 L 224.5,243.8125 V 248.5 h 16 v -8 c 0,-2.12109 -0.84375,-4.15625 -2.34375,-5.65625 L 225.65234,222.33984 230.26953,208.5 H 245.1875 L 256.5,219.8125 v 169.375 z M 360.5,333.1875 l -8,8 V 328.5 h -16 v 41.75391 L 314.95703,375.64453 304.5,365.1875 V 360.5 h -16 v 8 c 0,2.12109 0.84375,4.15625 2.34375,5.65625 L 303.34766,386.66016 298.73047,400.5 H 283.8125 L 272.5,389.1875 V 219.8125 L 283.8125,208.5 h 14.91797 l 4.61719,13.83984 -12.50391,12.50391 c -1.5,1.5 -2.34375,3.53516 -2.34375,5.65625 v 8 h 16 v -4.6875 L 315.8125,232.5 h 17.375 L 344.5,243.8125 v 25.375 l -13.65625,13.65625 c -1.5,1.5 -2.34375,3.53516 -2.34375,5.65625 v 8 h 16 v -4.6875 l 6.76172,-6.75391 9.23828,13.83985 z m 0,0 M 24.5,416.5 h 32 v 16 h -32 z m 0,0 m 0,-32 h 32 v 16 h -32 z m 0,0 m 0,-200 h 32 v 16 h -32 z m 0,0 m 0,-32 h 32 v 16 h -32 z m 0,0 m 448,264 h 32 v 16 h -32 z m 0,0 m 0,-32 h 32 v 16 h -32 z m 0,0 m 0,-200 h 32 v 16 h -32 z m 0,0 m 0,-32 h 32 v 16 h -32 z m 0,0 m -336,-48 h 96 v 16 h -96 z m 0,0 m 48,-32 h 48 v 16 h -48 z m 0,0 m -48,0 h 32 v 16 h -32 z m 0,0 m 304,-24 c 0,-13.253906 -10.74609,-24 -24,-24 h -304 c -13.253906,0 -24,10.746094 -24,24 v 104 h -16 v 16 h 16 v 216 h -16 v 16 h 16 v 80 c 0,13.25391 10.746094,24 24,24 h 304 c 13.25391,0 24,-10.74609 24,-24 v -80 h 16 v -16 h -16 v -216 h 16 v -16 h -16 z m -80,-8 h 16 v 29.601562 l -1.34375,-2.015624 C 373.58594,65.984375 371.12109,64.75 368.5,64.75 c -2.62109,0 -5.08594,1.234375 -6.65625,3.335938 L 360.5,70.101562 Z m 64,344 h -64 v 16 h 64 v 80 c 0,4.41797 -3.58203,8 -8,8 h -304 c -4.41797,0 -8,-3.58203 -8,-8 v -80 h 64 v -16 h -64 v -216 h 60.6875 l 29.65625,29.65625 11.3125,-11.3125 -32,-32 c -1.5,-1.5 -3.53516,-2.34375 -5.65625,-2.34375 h -64 v -104 c 0,-4.417969 3.58203,-8 8,-8 h 232 v 56 c 0,3.52734 2.30469,6.63672 5.67969,7.65625 3.375,1.02344 7.01953,-0.28125 8.97656,-3.21484 L 368.5,86.898438 l 9.34375,14.015622 c 1.95312,2.92969 5.59375,4.23828 8.96484,3.22266 3.3711,-1.01563 5.6836,-4.11719 5.69141,-7.63672 v -56 h 24 c 4.41797,0 8,3.582031 8,8 v 104 h -64 c -2.12109,0 -4.15625,0.84375 -5.65625,2.34375 l -32,32 11.3125,11.3125 L 363.8125,168.5 H 424.5 Z m 0,0"
     style="fill:#0088aa;stroke:#55ddff;stroke-width:2;stroke-linecap:round;stroke-linejoin:round;stroke-dasharray:none;filter:url(#filter36)"
     transform="matrix(0.92094862,0,0,0.92094862,20.909091,20.909091)" />
</svg>
